@startuml
class AllMass {
    + ResizeMap(sideLength:int) : void
    + {static} CanClick : bool <<set>> <<get>>
    + AllPhase() : void
    + OnPlayerLeft() : void
    + OnPlayerRight() : void
    + OnPlayerDown() : void
    + OnPlayerUp() : void
}
class InMassObject {
    + willFade : bool = false
    + InMassObject(objectColor:Color)
    + Set(objectColor:Color) : void
}
MonoBehaviour <|-- AllMass
AllMass --> "instance" AllMass
AllMass o-> "notExistsPos" Vector2Int
AllMass --> "defaultDummyColor" Color
AllMass --> "player" InMassObject
AllMass --> "model" InMassObject
AllMass --> "dummy" InMassObject
AllMass +-- InMassObject
InMassObject --> "objectColor" Color
InMassObject --> "NowPosition" Vector2Int
class AudioExtension <<static>> {
    + {static} PlayRandomPitchSound(audioClip:AudioClip, gameObject:GameObject, minPitch:float, maxPitch:float) : void
}
class ButtonHandler {
    + IsEnabledButton : bool <<set>> <<get>>
    + OnPointerEnter(eventData:PointerEventData) : void
    + OnPointerExit(eventData:PointerEventData) : void
    + OnPointerClick(eventData:PointerEventData) : void
}
MonoBehaviour <|-- ButtonHandler
IPointerClickHandler <|-- ButtonHandler
IPointerEnterHandler <|-- ButtonHandler
IPointerExitHandler <|-- ButtonHandler
class Collection2dExtension <<static>> {
    + {static} For(collection:List<List<ElementType>>, startValue:int, conditionCheck:Func<int, bool>, increment:Func<int, int>, loopAction:ForActionIn2d<ElementType>) : void
    + {static} For(collection:List<List<ElementType>>, startValue:int, conditionCheck:Func<int, bool>, increment:Func<int, int>, loopAction:ForActionInIndex<ElementType>) : void
    + {static} For(collection:List<List<ElementType>>, endValue:int, loopAction:ForActionIn2d<ElementType>, startValue:int) : void
    + {static} For(collection:List<List<ElementType>>, endValue:int, loopAction:ForActionInIndex<ElementType>, startValue:int) : void
    + {static} Foreach(collection:List<List<ElementType>>, loopAction:ForActionIn2d<ElementType>) : void
    + {static} Foreach(collection:List<List<ElementType>>, loopAction:ForActionInIndex<ElementType>) : void
    + {static} Foreach(collection:List<List<ElementType>>, loopAction:Action<ElementType>) : void
    + {static} For(collection:List<List<ElementType>>, startValue:int, conditionCheck:Func<int, bool>, increment:Func<int, int>, loopAction:ForFuncIn2d<ElementType, TReturn>) : List<TReturn>
    + {static} For(collection:List<List<ElementType>>, startValue:int, conditionCheck:Func<int, bool>, increment:Func<int, int>, loopAction:ForFuncInIndex<ElementType, TReturn>) : List<TReturn>
    + {static} For(collection:List<List<ElementType>>, endValue:int, loopAction:ForFuncIn2d<ElementType, TReturn>, startValue:int) : List<TReturn>
    + {static} For(collection:List<List<ElementType>>, endValue:int, loopAction:ForFuncInIndex<ElementType, TReturn>, startValue:int) : List<TReturn>
    + {static} Foreach(collection:List<List<ElementType>>, loopAction:ForFuncIn2d<ElementType, TReturn>) : List<TReturn>
    + {static} Foreach(collection:List<List<ElementType>>, loopAction:ForFuncInIndex<ElementType, TReturn>) : List<TReturn>
    + {static} Foreach(collection:List<List<ElementType>>, loopAction:Func<ElementType, TReturn>) : List<TReturn>
}
class CompleteCounter {
    + Rotate(angle:int) : void
    + Score(score:int) : void
    + PhaseText() : void
}
MonoBehaviour <|-- CompleteCounter
class DOTweenExtension <<static>> {
    + {static} OnPauseInUpdate(targetTween:T, action:TweenCallback) : T
    + {static} SetDependency(targetTween:T, dependency:Func<bool>) : T
}
class DOTweenExtensionBehaviour {
    +  <<event>> OnUpdate : TweenCallback 
}
DOTweenExtension +-- DOTweenExtensionBehaviour
MonoBehaviour <|-- DOTweenExtensionBehaviour
class EachMass {
    + Set(x:int, y:int, eventHandler:Action<Vector2Int>) : void
    + Reset() : void
    + EachPhase() : void
    + EachFade() : void
    + duration : float
    + ColorChange(color:Color) : void
    + OnPointerClick(eventData:PointerEventData) : void
    + OnPointerEnter(eventData:PointerEventData) : void
    + OnPointerExit(eventData:PointerEventData) : void
}
MonoBehaviour <|-- EachMass
IPointerClickHandler <|-- EachMass
IPointerEnterHandler <|-- EachMass
IPointerExitHandler <|-- EachMass
EachMass o-> "tracingColor" Color
EachMass o-> "modelingColor" Color
class EventHandlerDisposable {
    +  <<event>> Event : EventHandler 
    + Invoke() : void
}
class GameTime {
    + {static} isGaming : bool
    + {static} WaitGame() : WaitUntil
    + {static} Time : float <<get>> = 0
    + {static} WaitGameTime(seconds:float) : WaitUntil
}
MonoBehaviour <|-- GameTime
class KeyList {
    + {static} scoreKey : string = "score"
    + {static} highScoreKey : string = "highScore"
}
class LongPressedRapidfireInteraction {
    + duration : float = 0.2f
    + pressPoint : float = 0.5f
    + Process(context:InputInteractionContext) : void
    + Reset() : void
}
IInputInteraction <|-- LongPressedRapidfireInteraction
class PauseButton {
    + Rotate(angle:int) : void
    + PhaseColor() : void
    + OnPointerClick(eventData:PointerEventData) : void
    + OnPointerEnter(eventData:PointerEventData) : void
    + OnPointerExit(eventData:PointerEventData) : void
    + BackTo1stScene() : void
    + QuitGame() : void
}
MonoBehaviour <|-- PauseButton
IPointerEnterHandler <|-- PauseButton
IPointerExitHandler <|-- PauseButton
IPointerClickHandler <|-- PauseButton
class "PropertyArray`1"<PropertyType> {
    + PropertyArray(size:int)
    + <<virtual>> Set(index:int, value:PropertyType) : void
    + <<virtual>> Get(index:int) : PropertyType
}
interface "IProperty`1"<PropertyType> {
}
"IProperty`1" "<PropertyType>" <|-- "PropertyArray`1"
class ReversibleButton {
    + <<virtual>> OnClick() : void
    + OnCursorInOrOut(isCursorIn:bool) : void
}
MonoBehaviour <|-- ReversibleButton
class SceneReferenceExtension <<static>> {
    + {static} LoadScene(targetSceneRef:SceneReference, loadSceneMode:LoadSceneMode) : void
}
class ScoreDisplay {
    + Rotate(angle:int) : void
    + Score(score:int) : void
    + Complete() : void
    + PhaseText() : void
}
MonoBehaviour <|-- ScoreDisplay
class ClearScene {
    + Retry() : void
    + Quit() : void
}
MonoBehaviour <|-- ClearScene
enum Phase {
    tracing,
    modeling,
}
enum Harass {
    none= 0,
    bigger= 1,
    dummy= 2,
    fading= 4,
    rotate90= 8,
    rotate45= 16,
    rotateInTracing90= 32,
    rotateInTracing45= 64,
}
class GameSceneManager {
    + {static} MapSize : int <<set>> <<get>>
    + playerTracing : bool
    + {static} EvaluateListSimilarity(list1:List<Type>, list2:List<Type>) : int
    + {static} CanMove : bool <<set>> <<get>>
    + Retry() : void
}
class RandomPathGenerator {
    + GenerateRandomPath(gridSize:int) : List<Vector2Int>
}
enum Edge {
    Top,
    Left,
    Bottom,
    Right,
}
enum Direction {
    Up,
    Left,
    Down,
    Right,
}
GameTime <|-- GameSceneManager
GameSceneManager --> "instance" GameSceneManager
GameSceneManager o-> "phase" Phase
GameSceneManager o-> "pathGenerator" RandomPathGenerator
GameSceneManager --> "PlayerPosition" Vector2Int
RandomPathGenerator +-- Edge
RandomPathGenerator +-- Direction
class OverScene {
    + Retry() : void
    + Quit() : void
}
MonoBehaviour <|-- OverScene
class TitleScene {
    + StartGame() : void
    + Quit() : void
}
MonoBehaviour <|-- TitleScene
@enduml
